<svg xmlns="http://www.w3.org/2000/svg" viewBox="0 0 64 64" fill="none">
  <!-- Official Shield Silhouette of SMP Pancasila Ponokawan -->
  <path
    d="M 32 3
       C 36.5 3.3, 48.6 7.1, 56 20.3
       L 47.9 53
       C 42.7 59.1, 37.1 62.7, 32 63.5
       C 26.9 62.7, 21.3 59.1, 16.1 53
       L 8 20.3
       C 15.4 7.1, 27.5 3.3, 32 3 Z"
    fill="#5d8138"
    stroke="#090d14"
    stroke-width="1.8"
  />
  <path
    d="M 32 5
       C 36 5.3, 47 8.5, 54 20
       L 46.5 51.5
       C 41.5 57.5, 36.5 60.5, 32 61.2
       C 27.5 60.5, 22.5 57.5, 17.5 51.5
       L 10 20
       C 17 8.5, 28 5.3, 32 5 Z"
    fill="none"
    stroke="#ffffff"
    stroke-width="0.8"
  />
  <!-- Central Black Circle -->
  <circle cx="32" cy="35" r="16.5" fill="#090d14" stroke="#ffffff" stroke-width="0.75" />
  <!-- Central Star -->
  <polygon points="32,21.5 33.5,25.5 37.5,25.5 34.5,28 35.5,32 32,29.5 28.5,32 29.5,28 26.5,25.5 30.5,25.5" fill="#facc15" />
  <!-- Stars arc -->
  <circle cx="27" cy="23.5" r="1" fill="#facc15" />
  <circle cx="23" cy="26" r="0.9" fill="#facc15" />
  <circle cx="20" cy="29.5" r="0.8" fill="#facc15" />
  <circle cx="37" cy="23.5" r="1" fill="#facc15" />
  <circle cx="41" cy="26" r="0.9" fill="#facc15" />
  <circle cx="44" cy="29.5" r="0.8" fill="#facc15" />
  <!-- Torch / Bud -->
  <path d="M 32 26 C 33.5 27.5, 34 29.5, 33 31 C 32 32.5, 31 32, 31 31 C 30 29.5, 30.5 27.5, 32 26 Z" fill="#facc15" />
  <!-- Open Book -->
  <path d="M 32 34 C 28 33, 23 33.5, 19 35 L 18.5 40.5 C 23 39, 28 38.5, 32 40 C 36 38.5, 41 39, 45.5 40.5 L 45 35 C 41 33.5, 36 33, 32 34 Z" fill="#ffffff" stroke="#090d14" stroke-width="0.5" />
  <line x1="32" y1="34" x2="32" y2="40" stroke="#090d14" stroke-width="0.5" />
  <!-- Yellow Banner -->
  <path d="M 14 43.5 C 19 48.5, 25 51.5, 32 51.5 C 39 51.5, 45 48.5, 50 43.5 L 53 49 C 47 55.5, 40 58.5, 32 58.5 C 24 58.5, 17 55.5, 11 49 Z" fill="#facc15" stroke="#090d14" stroke-width="0.8" />
</svg>
